PathFileType	4	(X/Y/Z)	./resultDataOpenSim/trcMotMarkerGrf/sub06/qtm-13-04.trc
DataRate	CameraRate	NumFrames	NumMarkers	Units	OrigDataRate	OrigDataStartFrame	OrigNumFrames
250.000000	250.000000	8	24	m	250.000000	134	533
Frame#	Time	L.Toe.Tip			R.Toe.Tip			L.Ankle.Lat			R.Ankle.Lat			L.Ankle.Med			R.Ankle.Med			L.Heel			R.Heel			L.Knee.Lat			R.Knee.Lat			L.Knee.Med			R.Knee.Med			L.Thigh.Upper			R.Thigh.Upper			L.ASIS			R.ASIS			V.Sacral			L.Acromium			R.Acromium			C7			L.Elbow			R.Elbow			L.Wrist.Lat			R.Wrist.Lat
		X1	Y1	Z1	X2	Y2	Z2	X3	Y3	Z3	X4	Y4	Z4	X5	Y5	Z5	X6	Y6	Z6	X7	Y7	Z7	X8	Y8	Z8	X9	Y9	Z9	X10	Y10	Z10	X11	Y11	Z11	X12	Y12	Z12	X13	Y13	Z13	X14	Y14	Z14	X15	Y15	Z15	X16	Y16	Z16	X17	Y17	Z17	X18	Y18	Z18	X19	Y19	Z19	X20	Y20	Z20	X21	Y21	Z21	X22	Y22	Z22	X23	Y23	Z23	X24	Y24	Z24

134	0.532	-0.35567977	0.072751753	-0.10672361	-0.69645147	0.037003176	0.044508954	-0.47971463	0.096975992	-0.11667758	-0.83309057	0.067741273	0.05762941	-0.47057125	0.11399875	-0.031593141	-0.80377848	0.094997578	-0.022439429	-0.54479891	0.06140366	-0.062020175	-0.88249113	0.051939824	-0.010016617	-0.43426408	0.47451612	-0.12761247	-0.72414622	0.44464698	0.10828859	-0.4561103	0.47043828	-0.006335994	-0.74756688	0.4463932	-0.022841935	-0.61921687	0.82504407	-0.16667177	-0.67290055	0.81249471	0.17522997	-0.55895726	0.86991339	-0.11128464	-0.56405227	0.863311	0.13159454	-0.73794992	0.94235953	0.011317481	-0.63129322	1.3549952	-0.17343616	-0.61996302	1.3378604	0.1866952	-0.70356575	1.3768291	0.0096161195	-0.72300058	1.0538275	-0.22619784	-0.67166703	1.0258591	0.27759725	-0.61964917	0.83442148	-0.26846417	-0.45833075	0.89314751	0.27966617
135	0.536	-0.33605298	0.074895414	-0.10539894	-0.69644796	0.036932514	0.04439189	-0.46085458	0.095607573	-0.11587543	-0.8329071	0.068029591	0.057459987	-0.45245429	0.11291583	-0.030694408	-0.80340018	0.095121265	-0.022595885	-0.52493973	0.058109338	-0.061248464	-0.88231632	0.052342048	-0.010293648	-0.42725303	0.47395106	-0.12667486	-0.7223187	0.44411402	0.10847148	-0.44921885	0.46956611	-0.0052393295	-0.74472094	0.4460782	-0.022903062	-0.61288365	0.82383275	-0.16664689	-0.66739767	0.81122809	0.17500517	-0.55247757	0.86865201	-0.11115812	-0.5585565	0.86194467	0.1321026	-0.73199085	0.94094094	0.010567985	-0.62540885	1.3538228	-0.17332423	-0.61404733	1.3367387	0.18685592	-0.69783497	1.3757361	0.0097949629	-0.71844015	1.0532787	-0.22605812	-0.66400578	1.0245616	0.27838442	-0.61632223	0.83349863	-0.26945122	-0.44902503	0.89435441	0.27926286
136	0.54	-0.31654242	0.077236799	-0.1039068	-0.69642244	0.036849153	0.044253313	-0.44205167	0.094509741	-0.11506406	-0.83268796	0.068321449	0.057296132	-0.4345102	0.11206613	-0.029837276	-0.80300761	0.095209631	-0.022766023	-0.50513221	0.055158473	-0.060527428	-0.88214208	0.052744606	-0.01052938	-0.42036561	0.47322943	-0.12574223	-0.72015801	0.44357674	0.10857722	-0.44230738	0.46853091	-0.0040703288	-0.74176977	0.44567134	-0.022968753	-0.60650716	0.82251415	-0.16660095	-0.66156512	0.80979501	0.17444271	-0.54597027	0.86729875	-0.11102967	-0.55306324	0.86051804	0.13259489	-0.725933	0.93944685	0.0096839375	-0.61948928	1.3525707	-0.17321747	-0.60811888	1.3355278	0.1870082	-0.69195098	1.3746022	0.0098791341	-0.71377225	1.0526637	-0.22586844	-0.65620751	1.0231677	0.27908805	-0.61292998	0.83252701	-0.27042906	-0.43975302	0.89548634	0.27883132
137	0.544	-0.29723649	0.079769853	-0.10228215	-0.6963798	0.036737189	0.044081297	-0.42333034	0.09370575	-0.11423664	-0.83242988	0.068619846	0.057136492	-0.41674022	0.11147024	-0.029021658	-0.80258802	0.095265727	-0.022953087	-0.48545625	0.052570528	-0.059899847	-0.88196287	0.053149855	-0.010739259	-0.4136035	0.47235638	-0.12479521	-0.71764353	0.44303426	0.10861591	-0.43539724	0.46733629	-0.0028379299	-0.73870531	0.44517318	-0.023047236	-0.59995276	0.82110559	-0.16649883	-0.6552971	0.80816627	0.17357832	-0.53942352	0.86586075	-0.11090874	-0.54756735	0.85903465	0.13306494	-0.71971159	0.93789224	0.0085967203	-0.61345924	1.3512335	-0.17309794	-0.60218135	1.3342348	0.18715612	-0.68583753	1.3733963	0.0098603712	-0.70905247	1.0519773	-0.22570709	-0.64831077	1.0216773	0.27974512	-0.60946967	0.83153755	-0.27137688	-0.43051979	0.89654305	0.27837219
138	0.548	-0.27819222	0.0825083	-0.10061526	-0.69632211	0.036587632	0.043869127	-0.40472128	0.09322046	-0.11339039	-0.8321234	0.068930074	0.056977519	-0.39912002	0.11114427	-0.02824111	-0.8021353	0.095294627	-0.023164726	-0.46600412	0.05038324	-0.059263954	-0.88177499	0.053559215	-0.010940034	-0.40689945	0.47133178	-0.12384756	-0.71485983	0.4424506	0.10862705	-0.42856501	0.46599503	-0.0016103712	-0.73552416	0.44459027	-0.023138107	-0.5932444	0.81961569	-0.16635499	-0.6486728	0.8063409	0.17264608	-0.53280147	0.86434588	-0.11080286	-0.54205274	0.85749549	0.13350505	-0.71339394	0.9363116	0.0073631462	-0.60731286	1.3498169	-0.17296743	-0.5962344	1.3328691	0.1873009	-0.67962256	1.372099	0.0098288704	-0.70429842	1.0512184	-0.2255887	-0.6404202	1.0201268	0.28040834	-0.60591203	0.83052659	-0.27227876	-0.42133575	0.89751822	0.27790135
139	0.552	-0.25943581	0.085472637	-0.098981303	-0.69624968	0.036412084	0.043626552	-0.38626473	0.093060931	-0.11253467	-0.83176986	0.069250885	0.056808831	-0.38166731	0.11108507	-0.027497808	-0.80164987	0.095303203	-0.02340913	-0.44686837	0.048638864	-0.058470866	-0.88157446	0.053975479	-0.011144693	-0.40015862	0.47016072	-0.12292558	-0.71188883	0.44180119	0.10863284	-0.42185613	0.464523	-0.00043485615	-0.73223311	0.44393568	-0.023233953	-0.58647123	0.81804765	-0.16621956	-0.64202214	0.80438559	0.17204846	-0.52609507	0.86276498	-0.11070793	-0.53649418	0.85590445	0.13390268	-0.70711995	0.93473802	0.006112114	-0.6011767	1.348341	-0.17286329	-0.59027679	1.3314374	0.1874424	-0.67347364	1.3707006	0.0098847175	-0.69949773	1.0503898	-0.22549105	-0.63256796	1.0185449	0.28108063	-0.6022794	0.82944966	-0.2731456	-0.41220923	0.89840406	0.27743927
140	0.556	-0.24099801	0.088668612	-0.097392792	-0.69616363	0.036240533	0.043377278	-0.36801767	0.093203277	-0.11169852	-0.83138734	0.069574905	0.056616434	-0.36444726	0.11127941	-0.026802446	-0.80113684	0.095300139	-0.023688764	-0.42808095	0.047330119	-0.057503332	-0.88135685	0.05440271	-0.01136377	-0.39337116	0.46886407	-0.12203034	-0.70874604	0.4410944	0.1086224	-0.41524009	0.46293377	0.00070994952	-0.72884435	0.44322912	-0.023330358	-0.57963585	0.81640637	-0.16612987	-0.63573156	0.80241085	0.17213781	-0.51935247	0.86112847	-0.11060804	-0.53086966	0.85427197	0.13424738	-0.70097921	0.93317905	0.0049361027	-0.59516572	1.3468198	-0.17281629	-0.58431405	1.3299451	0.18758054	-0.66742107	1.3692079	0.010036571	-0.69462871	1.0494939	-0.22539646	-0.62468986	1.0169202	0.28171733	-0.59863958	0.82826229	-0.27400663	-0.40314326	0.89919782	0.27699674
141	0.56	-0.22292439	0.092079278	-0.095823337	-0.69606653	0.036096099	0.043140501	-0.35006287	0.093608066	-0.110919	-0.83099793	0.069895327	0.056393268	-0.34751532	0.11171592	-0.026149485	-0.80060469	0.095294811	-0.023998962	-0.40957984	0.046367395	-0.056574956	-0.88111956	0.054846533	-0.011604403	-0.38663334	0.46747687	-0.12112211	-0.70536632	0.44036671	0.10855505	-0.40865763	0.46124037	0.0018721588	-0.72536093	0.4424908	-0.023435958	-0.57267758	0.81470058	-0.1660915	-0.62998193	0.80050189	0.17297168	-0.51262343	0.85944067	-0.11048854	-0.52518963	0.85260732	0.13454917	-0.69496978	0.93161469	0.0038515924	-0.58923532	1.3452506	-0.17280842	-0.57835103	1.3283989	0.18771406	-0.66140893	1.367666	0.010214156	-0.68967644	1.0485318	-0.22530327	-0.61676079	1.0152326	0.28229862	-0.59504074	0.82694613	-0.27487839	-0.39413977	0.89990153	0.27657273
